<?xml version="1.0" encoding="utf-8"?>
<!-- Generator: Adobe Illustrator 24.0.0, SVG Export Plug-In . SVG Version: 6.00 Build 0)  -->
<svg version="1.1" id="Livello_1" xmlns="http://www.w3.org/2000/svg" xmlns:xlink="http://www.w3.org/1999/xlink" x="0px" y="0px"
	 viewBox="0 0 2401 895" style="enable-background:new 0 0 2401 895;" xml:space="preserve">
<style type="text/css">
	.st0{fill-rule:evenodd;clip-rule:evenodd;fill:#FFFFFF;}
</style>
<title>Logo_Cubbit</title>
<desc>Created with Sketch.</desc>
<g id="Page-1">
	<g id="Logo_Cubbit">
		<path id="Logo" class="st0" d="M242.3,515.8c1.1,0.8,2.3,1.6,3.5,2.3l8.1,4.7L434.9,627c1.4,0.8,2.9,1.5,4.3,2v265.6
			c-1.5-0.6-2.9-1.2-4.3-2L245.9,783.8c-9.4-5.4-15.2-15.4-15.2-26.3l0-217.8C230.7,530.3,235,521.5,242.3,515.8z M657.9,515.7
			c7.3,5.7,11.7,14.5,11.7,23.9l0,217.9c0,10.8-5.8,20.9-15.2,26.3L465.4,893c-1.1,0.6-2.2,1.2-3.3,1.7l0-13.3l0-252.7
			c1.1-0.5,2.2-1,3.3-1.6l189.1-108.9C655.6,517.4,656.8,516.6,657.9,515.7z M462,135.8C462,135.8,462,135.8,462,135.8
			c1.1,0.5,2.2,1,3.3,1.6l189.1,109.3c9.4,5.4,15.2,15.5,15.2,26.4l0,218.6c0,1.2-0.1,2.4-0.2,3.6l0,0c-0.9,7.9-4.9,15-11,20
			c-0.1,0.1-0.3,0.2-0.4,0.4c-1.1-0.9-2.3-1.6-3.5-2.3L465.4,404.1c-1.1-0.6-2.2-1.2-3.3-1.7c-7.3-3.1-15.5-3.2-22.8-0.4
			c-0.2,0.1-0.4,0.2-0.6,0.3c-1.2,0.5-2.4,1.1-3.6,1.8L245.9,513.4c-1.2,0.7-2.3,1.4-3.4,2.2l-0.2,0.1c-6.2-4.9-10.3-12-11.4-19.8
			l0.2-0.1c1.2-0.5,2.4-1.1,3.6-1.8l189.1-109.3c1.2-0.7,2.3-1.4,3.4-2.2c0.2-0.2,0.4-0.3,0.6-0.5c6.1-5,10.1-12.1,11.1-20
			c0.2-1.2,0.2-2.5,0.2-3.7l0-218.6c0-1.4-0.1-2.8-0.3-4.2c0.2-0.1,0.3-0.1,0.5-0.2C446.6,132.6,454.8,132.7,462,135.8z M0.4,135
			L23,148.1L231,268.3c-0.3,1.6-0.4,3.2-0.4,4.8l0,209.2l0,9.4c0,1.4,0.1,2.8,0.3,4.2c-8.6,3.5-18.4,2.8-26.6-1.9L15.2,384.7
			C5.8,379.3,0,369.2,0,358.4l0-218.6C0,138.2,0.1,136.6,0.4,135z M234.7,4.1l189.1,109.3c8.2,4.7,13.6,13,14.9,22.2
			c-1.3,0.5-2.6,1.2-3.9,1.9L245.8,246.8c-1.1,0.6-2.1,1.3-3,2L23.4,122l-11.3-6.5c1-0.7,2-1.4,3.1-2.1L204.3,4.1
			C213.7-1.4,225.3-1.4,234.7,4.1z"/>
		<g id="Cubbit" transform="translate(878.910132, 224.016053)">
			<path id="c" class="st0" d="M189.9,443.9C63.3,443.9,0,372.8,0,230.8c0-70.6,16.5-123.9,49.6-159.9C82.7,35,129.4,17,189.9,17
				c28.8,0,55.2,5.8,79.1,17.4c23.9,11.6,43.2,27.3,57.8,47.2c2.8,4.1,4.3,8.3,4.3,12.8c0,5.7-1.8,10.4-5.5,14
				c-3.6,3.7-8.3,5.5-14,5.5c-6.5,0-11.8-2.6-15.8-7.9c-11-15-25.9-27.3-44.7-36.8c-18.9-9.5-39.3-14.3-61.2-14.3
				c-47.5,0-83.9,14.6-109.2,43.8c-25.4,29.2-38,73.3-38,132.1c0,61.3,12.4,105.9,37.1,133.7c24.7,27.8,61.5,41.7,110.2,41.7
				c21.1,0,41.2-4.3,60.3-12.8c19.1-8.5,34.3-20.9,45.6-37.1c3.7-5.3,8.9-7.9,15.8-7.9c5.7,0,10.4,1.9,14,5.8
				c3.7,3.9,5.5,8.4,5.5,13.7c0,4.1-1.2,7.9-3.6,11.6c-13.4,19.5-32.7,35.1-57.8,46.9C244.5,438,217.9,443.9,189.9,443.9"/>
			<path id="u" class="st0" d="M396.9,158.6c3.9-3.7,8.4-5.5,13.7-5.5c5.3,0,9.8,1.9,13.7,5.8c3.9,3.9,5.8,8.4,5.8,13.7v158.9
				c0,22.7,5.3,40.7,15.8,53.9c10.5,13.2,30,19.8,58.4,19.8c28.4,0,47.9-6.6,58.4-19.8c10.6-13.2,15.8-31.2,15.8-53.9V172.6
				c0-5.3,1.9-9.8,5.8-13.7c3.9-3.9,8.6-5.8,14.3-5.8c5.3,0,9.7,1.9,13.4,5.8c3.7,3.9,5.5,8.4,5.5,13.7v158.9
				c0,33.7-8.1,60.6-24.3,80.7c-16.2,20.1-45.9,30.1-88.9,30.1c-43,0-72.6-10-88.9-30.1c-16.2-20.1-24.3-47-24.3-80.7V172.6
				C391.1,166.9,393.1,162.3,396.9,158.6"/>
			<path id="b" class="st0" d="M713.5,237.5v84c0,28,7.3,49.1,21.9,63.3c14.6,14.2,34.1,21.3,58.4,21.3c57.2,0,85.8-37.2,85.8-111.4
				c0-73.9-28.6-110.8-85.8-110.8c-10.6,0-20.6,1.8-30.1,5.5c-9.5,3.7-17.2,8.1-23.1,13.4c-5.9,5.3-11,10.6-15.2,15.8
				c-4.3,5.3-7.2,9.7-8.8,13.4L713.5,237.5z M796.3,148.6c81.6,0,122.3,48.7,122.3,146.1c0,49.1-10.8,85.9-32.3,110.2
				c-21.5,24.4-52.3,36.5-92.5,36.5c-36.1,0-65-10.2-86.7-30.7c-21.7-20.5-32.6-50.2-32.6-89.2v-302c0-5.7,1.9-10.4,5.8-14
				C684.2,1.8,688.8,0,694,0c5.3,0,9.8,1.8,13.7,5.5c3.9,3.7,5.8,8.3,5.8,14v168.7c7.7-11,18.9-20.3,33.5-28
				C761.6,152.4,778,148.6,796.3,148.6L796.3,148.6z"/>
			<path id="b_1_" class="st0" d="M1014,237.5v84c0,28,7.3,49.1,21.9,63.3c14.6,14.2,34.1,21.3,58.4,21.3
				c57.2,0,85.8-37.2,85.8-111.4c0-73.9-28.6-110.8-85.8-110.8c-10.6,0-20.6,1.8-30.1,5.5c-9.5,3.7-17.3,8.1-23.1,13.4
				c-5.9,5.3-10.9,10.6-15.2,15.8c-4.3,5.3-7.2,9.7-8.8,13.4L1014,237.5z M1096.7,148.6c81.6,0,122.3,48.7,122.3,146.1
				c0,49.1-10.8,85.9-32.3,110.2c-21.5,24.4-52.3,36.5-92.5,36.5c-36.1,0-65-10.2-86.7-30.7c-21.7-20.5-32.6-50.2-32.6-89.2v-302
				c0-5.7,1.9-10.4,5.8-14c3.9-3.7,8.4-5.5,13.7-5.5c5.3,0,9.8,1.8,13.7,5.5c3.8,3.7,5.8,8.3,5.8,14v168.7c7.7-11,18.9-20.3,33.5-28
				C1062,152.4,1078.5,148.6,1096.7,148.6L1096.7,148.6z"/>
			<path id="i" class="st0" d="M1323.7,169.6v247.2c0,5.7-1.8,10.3-5.5,14c-3.6,3.7-8.3,5.5-14,5.5c-5.7,0-10.3-1.8-14-5.5
				c-3.7-3.7-5.5-8.3-5.5-14V169.6c0-5.7,1.8-10.3,5.5-14c3.6-3.6,8.3-5.5,14-5.5c5.7,0,10.4,1.8,14,5.5
				C1321.9,159.2,1323.7,163.9,1323.7,169.6 M1304.2,92.9c-15.4,0-23.1-7.7-23.1-23.1c0-16.2,7.7-24.4,23.1-24.4
				c15.4,0,23.1,8.1,23.1,24.4C1327.4,85.2,1319.7,92.9,1304.2,92.9"/>
			<path id="t" class="st0" d="M1425.2,157.1V93.2c0-5.3,1.9-9.8,5.8-13.7c3.9-3.9,8.4-5.8,13.7-5.8s9.8,1.9,13.7,5.8
				c3.9,3.9,5.8,8.4,5.8,13.7v63.9h39.6c5.3,0,9.6,1.7,13.1,5.2c3.4,3.5,5.2,7.8,5.2,13.1c0,5.3-1.7,9.7-5.2,13.1
				c-3.5,3.5-7.8,5.2-13.1,5.2h-39.6v168.1c0,12.6,3.2,22.4,9.7,29.5c6.5,7.1,15,10.7,25.6,10.7c5.3,0,9.7,1.7,13.4,5.2
				c3.7,3.5,5.5,7.8,5.5,13.1s-1.8,9.6-5.5,13.1c-3.7,3.4-8.1,5.2-13.4,5.2c-23.5,0-41.8-7.1-54.8-21.3
				c-13-14.2-19.5-32.7-19.5-55.4V193.7h-23.7c-5.3,0-9.6-1.7-13.1-5.2c-3.5-3.4-5.2-7.8-5.2-13.1c0-5.3,1.7-9.6,5.2-13.1
				c3.4-3.4,7.8-5.2,13.1-5.2H1425.2z"/>
		</g>
	</g>
</g>
</svg>
